# xmcd
#
# Track frame offsets: 
#        150
#        18545
#        58802
#        93695
#        105180
#        128081
#        149935
#        181977
#        201045
#
# Disc length: 3250 seconds
#
# Revision: 1
# Processed by: cddbd v1.5.2PL0 Copyright (c) Steve Scherf et al.
# Submitted via: ExactAudioCopy v1.0b3
#
DISCID=820cb009
DTITLE=Stevie Ray Vaughan - Live at Austin City Limits
DYEAR=1997
DGENRE=Blues
TTITLE0=Pride and Joy
TTITLE1=Texas Flood
TTITLE2=Voodoo Chile
TTITLE3=The House is Rockin'
TTITLE4=Tightrope
TTITLE5=Leave My Girl Alone
TTITLE6=Cold Shot
TTITLE7=Crossfire
TTITLE8=Riviera Paradise
EXTD=
EXTT0=
EXTT1=
EXTT2=
EXTT3=
EXTT4=
EXTT5=
EXTT6=
EXTT7=
EXTT8=
PLAYORDER=
